# xmcd
#
# Track frame offsets: 
#        150
#        1709
#        17663
#        29266
#        47906
#        64224
#        83906
#        99903
#        119645
#        137428
#        163073
#        184182
#        199901
#        221519
#        260003
#        275664
#        290337
#        312410
#        328736
#
# Disc length: 4766 seconds
#
# Revision: 0
# Processed by: cddbd v1.5.2PL0 Copyright (c) Steve Scherf et al.
# Submitted via: ExactAudioCopy v1.3
#
DISCID=18129c13
DTITLE=Eugene Hideaway Bridges - Live In Tallahassee
DYEAR=2018
DGENRE=Blues
TTITLE0=Intro by Gary Anton
TTITLE1=Step By Step
TTITLE2=I Can Never Forget
TTITLE3=How Long
TTITLE4=When The Blues Overtake You
TTITLE5=Mom And Daddy's Place
TTITLE6=Good Old Days
TTITLE7=Hold On A Little Bit Longer
TTITLE8=This Old House
TTITLE9=How Long Will It Take
TTITLE10=I Can't Wait
TTITLE11=She's Out Of My Life
TTITLE12=Take Home Pay
TTITLE13=Sweet Little Angel
TTITLE14=Don't Call It Supper
TTITLE15=I'm Holding Out
TTITLE16=I'll Be A King
TTITLE17=I Can't Stop Loving You Baby
TTITLE18=Rise Above It
EXTD=
EXTT0=
EXTT1=
EXTT2=
EXTT3=
EXTT4=
EXTT5=
EXTT6=
EXTT7=
EXTT8=
EXTT9=
EXTT10=
EXTT11=
EXTT12=
EXTT13=
EXTT14=
EXTT15=
EXTT16=
EXTT17=
EXTT18=
PLAYORDER=
